<svg xmlns="http://www.w3.org/2000/svg" width="144" height="96" viewBox="0 0 144 96">
  <style>
    path, circle, ellipse {
      fill: none;
      stroke: #151b23;
      stroke-width: 2;
      stroke-linecap:  round;
      stroke-linejoin: round;
    }
  </style>
  <path d="M84 59.4c.9-1.9 3.3-5.5 5.6-7.2C91.2 51 94 50 94 53c0 .6-.4 5.2-.6 6-.7 2.6-3.3 3.2-5.7 2.8 4 .7 5 3.1 2.8 5.3-4.2 4.4-6.1-1.1-6.7-2.8-.6 1.8-2.4 7.2-6.7 2.8-2.2-2.3-1.2-4.7 2.8-5.3-2.3.4-4.9-.2-5.7-2.8-.2-.8-.6-5.3-.6-6 0-3.1 2.7-2.2 4.3-.8 2.7 1.7 5.2 5.3 6.1 7.2M41.5 43H33c-3.8 0-7-3.2-7-7s3.2-7 7-7c3.1 0 5.8 2 6.7 5h1.8c2.5 0 4.5 2 4.5 4.5S44 43 41.5 43"/>
  <path d="M102 51v12"/>
  <circle cx="114" cy="54" r="3"/>
  <circle cx="102" cy="66" r="3"/>
  <path d="M114 57c0 4.9-4.1 9-9 9"/>
  <ellipse cx="36" cy="53" rx="9" ry="3"/>
  <path d="M27 53v14c0 1.7 4.1 3 9 3s9-1.3 9-3V53"/>
  <path d="M27 60c0 1.7 4.1 3 9 3s9-1.3 9-3"/>
  <path d="M68 39H52v-9c0-1.1.9-2 2-2h12c1.1 0 2 .9 2 2zm-16 0-1.9 3.5c-.1.2-.1.4-.1.5 0 .6.4 1 1 1h18c.6 0 1-.4 1-1 0-.2-.1-.3-.1-.4L68 39M11 69.8c.6.3 1.4.3 2 0l7-4c.6-.3 1-1 1-1.8v-8c0-.7-.4-1.3-1-1.8l-7-4c-.6-.3-1.4-.3-2 0l-7 4c-.6.3-1 1-1 1.8v8c0 .7.4 1.3 1 1.8zm1 .2V60"/>
  <path d="m3.3 55 8.7 5 8.7-5M7.5 52.2l9 5.2"/>
  <circle cx="84" cy="36" r="10"/>
  <path d="M78 36c0-1.7.7-3.2 1.8-4.2"/>
  <circle cx="84" cy="36" r="2"/>
  <path d="M90 36c0 1.7-.7 3.2-1.8 4.2m47.8 5.5c-.4.4-1.1.4-1.4 0l-1.6-1.6c-.4-.4-.4-1.1 0-1.4l5.7-5.7c.4-.4 1.1-.4 1.4 0l1.6 1.6c.4.4.4 1 0 1.5z"/>
  <path d="m138.3 37.2-1.4-7c-.1-.4-.4-.7-.8-.8L123.3 26c-.6-.2-1.1.2-1.2.8-.1.2-.1.3 0 .5l3.4 12.9c.1.4.4.7.8.8l7 1.4m-11-16.1 7.4 7.5"/>
  <circle cx="131.2" cy="35.2" r="2.1"/>
  <path d="M5 27h14c1.1 0 2 .9 2 2v14c0 1.1-.9 2-2 2H5c-1.1 0-2-.9-2-2V29c0-1.1.9-2 2-2"/>
  <path d="m10 39-3-3 3-3m4 0 3 3-3 3"/>
  <path d="m56 50.5 1.8 1.8m4.4 0 1.8-1.8m-7 5v-1c0-1.7 1.3-3 3-3s3 1.3 3 3v1m-3 13c-3.3 0-6-2.7-6-6v-3c0-2.2 1.8-4 4-4h4c2.2 0 4 1.8 4 4v3c0 3.3-2.7 6-6 6m-6-11.1c-1.7-.5-3-2-3-3.9m3 8h-4"/>
  <path d="M51 69.5c0-2.1 1.7-3.9 3.8-4m14.2-12c0 1.9-1.3 3.4-3 3.9m4 4.1h-4m-.8 4c2.1.1 3.8 1.9 3.8 4m-11-10 4 4m-4 0 4-4m38-16v-15c0-1.4 1.1-2.5 2.5-2.5H115c.6 0 1 .5 1 1v18c0 .6-.4 1-1 1h-12.5c-1.4 0-2.5-1.1-2.5-2.5s1.1-2.5 2.5-2.5H116"/>
  <path d="M127 65h.01"/>
  <path d="M127 69c-2.2 0-4-1.8-4-4V53c0-1.1.9-2 2-2h4c1.1 0 2 .9 2 2v12c0 2.2-1.8 4-4 4"/>
  <path d="m131 55.3 1.6-1.7c.8-.8 2.1-.8 2.9 0l2.9 2.8c.8.8.8 2.1 0 2.8l-8.5 8.5M127 65"/>
  <path d="M123 65c0 2.2 1.8 4 4 4h12c1.1 0 2-.9 2-2v-4c0-1.1-.9-2-2-2h-2.4m-5.6-5 5.3 5.3"/>
</svg>
